<svg id="svg" version="1.1" xmlns="http://www.w3.org/2000/svg" xmlns:xlink="http://www.w3.org/1999/xlink" width="400" height="152.66666666666669" viewBox="0, 0, 400,152.66666666666669"><g id="svgg"><path id="path0" d="M193.167 26.314 C 191.700 26.457,189.525 26.825,188.333 27.131 C 187.142 27.437,185.525 27.854,184.741 28.056 C 183.958 28.259,183.236 28.554,183.138 28.712 C 183.041 28.871,182.668 29.000,182.310 29.000 C 180.897 29.000,172.858 33.111,170.296 35.143 C 169.818 35.523,169.095 36.058,168.690 36.333 C 168.285 36.608,167.560 37.133,167.078 37.500 C 165.743 38.515,160.588 43.710,159.833 44.800 C 159.467 45.329,158.904 46.000,158.583 46.289 C 158.262 46.578,158.000 46.920,158.000 47.048 C 158.000 47.176,157.332 48.277,156.516 49.494 C 155.700 50.711,154.940 51.998,154.827 52.354 C 154.714 52.709,154.482 53.000,154.311 53.000 C 154.140 53.000,154.000 53.287,154.000 53.639 C 154.000 53.990,153.884 54.328,153.743 54.389 C 153.258 54.599,150.618 61.408,150.017 64.000 C 148.677 69.780,148.632 70.293,148.756 78.266 C 148.912 88.277,149.791 92.412,153.295 99.615 C 153.683 100.411,154.000 101.274,154.000 101.532 C 154.000 101.789,154.143 102.000,154.318 102.000 C 154.492 102.000,154.897 102.562,155.216 103.250 C 155.536 103.938,155.993 104.620,156.232 104.767 C 156.471 104.913,156.668 105.213,156.670 105.433 C 156.677 106.187,161.748 112.506,163.798 114.315 C 164.328 114.784,165.153 115.560,165.631 116.041 C 166.768 117.184,170.932 120.317,171.905 120.760 C 172.324 120.951,172.667 121.218,172.667 121.354 C 172.667 121.490,173.079 121.759,173.583 121.951 C 174.088 122.144,174.875 122.524,175.333 122.796 C 175.792 123.068,177.067 123.686,178.167 124.171 C 179.267 124.655,180.671 125.297,181.287 125.598 C 182.650 126.263,186.114 126.350,186.733 125.734 C 187.047 125.421,187.195 123.718,187.270 119.568 L 187.374 113.833 182.104 113.816 C 176.202 113.796,174.985 113.465,172.520 111.206 C 171.398 110.178,169.667 107.367,169.667 106.572 C 169.667 105.929,166.563 101.615,165.714 101.077 C 165.229 100.770,164.271 99.953,163.584 99.260 L 162.334 98.000 163.417 97.966 C 165.720 97.894,166.854 98.088,167.712 98.699 C 168.202 99.048,168.676 99.333,168.766 99.333 C 169.335 99.333,172.667 103.298,172.667 103.975 C 172.667 104.169,172.967 104.515,173.333 104.744 C 173.700 104.973,174.000 105.349,174.000 105.580 C 174.000 105.811,174.122 106.000,174.270 106.000 C 174.419 106.000,174.832 106.264,175.187 106.588 C 177.334 108.540,182.402 109.079,185.865 107.723 C 187.456 107.099,187.515 107.026,188.068 105.001 C 188.381 103.856,188.868 102.663,189.151 102.350 C 189.435 102.037,189.667 101.621,189.667 101.426 C 189.667 101.231,189.892 100.985,190.167 100.879 C 191.392 100.409,190.615 99.752,188.417 99.399 C 183.988 98.688,180.783 97.746,179.000 96.632 C 178.725 96.460,178.004 96.092,177.397 95.814 C 176.791 95.536,175.203 94.226,173.870 92.904 C 171.580 90.634,171.157 89.972,169.131 85.500 C 168.625 84.383,167.766 79.689,167.457 76.352 C 167.023 71.671,168.956 65.627,171.965 62.258 C 172.760 61.368,172.767 61.308,172.305 59.424 C 171.426 55.840,171.989 49.059,173.272 47.776 C 174.272 46.776,180.654 49.103,185.919 52.387 L 187.005 53.064 190.752 52.196 C 196.162 50.942,203.505 50.942,208.914 52.196 L 212.662 53.064 213.748 52.389 C 218.214 49.613,224.947 46.929,225.921 47.537 C 227.694 48.644,228.426 55.483,227.244 59.903 C 226.893 61.217,226.926 61.391,227.689 62.244 C 230.701 65.614,232.679 71.860,232.203 76.500 C 231.847 79.968,230.946 84.770,230.518 85.482 C 230.291 85.859,229.908 86.804,229.666 87.583 C 229.424 88.362,229.101 89.000,228.947 89.000 C 228.793 89.000,228.667 89.250,228.667 89.557 C 228.667 90.379,223.725 95.066,222.083 95.801 C 221.304 96.149,220.667 96.562,220.667 96.717 C 220.667 96.873,220.440 97.000,220.162 97.000 C 219.885 97.000,219.322 97.173,218.912 97.385 C 217.280 98.229,216.977 98.333,216.160 98.333 C 215.694 98.333,214.823 98.537,214.226 98.787 C 213.629 99.036,212.134 99.348,210.904 99.480 C 208.581 99.729,208.199 100.036,209.333 100.744 C 209.700 100.973,210.000 101.300,210.000 101.471 C 210.000 101.641,210.235 102.040,210.521 102.357 C 211.774 103.741,212.099 106.210,212.302 115.901 C 212.451 122.963,212.608 125.409,212.934 125.734 C 213.552 126.350,217.016 126.263,218.380 125.598 C 218.996 125.297,220.400 124.655,221.500 124.171 C 222.600 123.687,223.800 123.124,224.167 122.920 C 224.533 122.715,225.133 122.385,225.500 122.186 C 228.032 120.808,232.389 117.638,234.201 115.856 C 234.586 115.477,235.336 114.784,235.867 114.315 C 237.914 112.512,242.990 106.188,242.996 105.433 C 242.998 105.213,243.196 104.913,243.435 104.767 C 243.674 104.620,244.131 103.938,244.450 103.250 C 244.770 102.563,245.174 102.000,245.349 102.000 C 245.524 102.000,245.667 101.789,245.667 101.532 C 245.667 101.274,245.984 100.411,246.371 99.615 C 249.904 92.352,251.000 87.081,251.000 77.348 C 251.000 70.340,250.928 69.619,249.681 64.167 C 249.252 62.288,247.897 58.437,247.049 56.687 C 246.656 55.874,246.333 55.011,246.333 54.771 C 246.333 54.530,246.183 54.333,246.000 54.333 C 245.817 54.333,245.667 54.033,245.667 53.667 C 245.667 53.300,245.527 53.000,245.356 53.000 C 245.185 53.000,244.953 52.709,244.840 52.354 C 244.727 51.998,243.967 50.711,243.151 49.494 C 242.334 48.277,241.667 47.176,241.667 47.048 C 241.667 46.920,241.404 46.575,241.083 46.281 C 240.762 45.987,240.125 45.243,239.667 44.626 C 238.247 42.716,232.332 37.000,231.775 37.000 C 231.655 37.000,231.318 36.776,231.028 36.502 C 228.369 33.992,219.271 29.000,217.357 29.000 C 216.999 29.000,216.626 28.871,216.528 28.712 C 216.349 28.423,215.791 28.258,210.739 27.007 C 207.616 26.233,197.910 25.851,193.167 26.314 " stroke="none" fill="#000000" fill-rule="evenodd"></path></g></svg>