<svg id="svg" version="1.1" xmlns="http://www.w3.org/2000/svg" xmlns:xlink="http://www.w3.org/1999/xlink" width="400" height="152.66666666666669" viewBox="0, 0, 400,152.66666666666669"><g id="svgg"><path id="path0" d="M192.333 23.528 C 187.956 24.268,183.667 25.420,181.116 26.539 C 180.539 26.793,179.899 27.000,179.695 27.000 C 179.491 27.000,179.064 27.138,178.745 27.306 C 178.427 27.474,177.342 28.016,176.333 28.510 C 166.223 33.467,157.133 42.557,152.177 52.667 C 151.683 53.675,151.141 54.760,150.972 55.079 C 150.804 55.397,150.667 55.824,150.667 56.028 C 150.667 56.232,150.459 56.872,150.206 57.450 C 149.491 59.078,149.079 60.328,148.541 62.500 C 148.269 63.600,147.848 65.250,147.606 66.167 C 146.994 68.487,146.993 83.837,147.604 86.167 C 147.845 87.083,148.175 88.358,148.338 89.000 C 148.992 91.570,149.825 94.211,150.232 95.000 C 150.469 95.458,150.663 96.023,150.665 96.255 C 150.666 96.486,150.804 96.936,150.972 97.255 C 151.141 97.573,151.683 98.658,152.177 99.667 C 157.133 109.777,166.223 118.867,176.333 123.823 C 177.342 124.317,178.427 124.859,178.745 125.028 C 179.064 125.196,179.491 125.333,179.695 125.333 C 179.899 125.333,180.539 125.541,181.116 125.794 C 182.745 126.509,183.995 126.921,186.167 127.459 C 187.267 127.731,188.917 128.152,189.833 128.394 C 192.154 129.006,207.504 129.007,209.833 128.396 C 210.750 128.155,212.025 127.825,212.667 127.662 C 215.237 127.008,217.878 126.175,218.667 125.768 C 219.125 125.531,219.690 125.337,219.921 125.335 C 220.153 125.334,220.603 125.196,220.921 125.028 C 221.240 124.859,222.325 124.317,223.333 123.823 C 233.443 118.867,242.533 109.777,247.490 99.667 C 247.984 98.658,248.526 97.573,248.694 97.255 C 248.862 96.936,249.001 96.486,249.002 96.255 C 249.003 96.023,249.198 95.458,249.434 95.000 C 249.842 94.211,250.675 91.570,251.328 89.000 C 251.491 88.358,251.822 87.083,252.062 86.167 C 252.674 83.837,252.673 68.487,252.060 66.167 C 251.818 65.250,251.398 63.600,251.125 62.500 C 250.588 60.328,250.175 59.078,249.461 57.450 C 249.207 56.872,249.000 56.232,249.000 56.028 C 249.000 55.824,248.862 55.397,248.694 55.079 C 248.526 54.760,247.984 53.675,247.490 52.667 C 242.533 42.557,233.443 33.467,223.333 28.510 C 222.325 28.016,221.240 27.474,220.921 27.306 C 220.603 27.138,220.153 26.999,219.921 26.998 C 219.690 26.997,219.125 26.802,218.667 26.566 C 217.864 26.152,215.101 25.283,212.667 24.679 C 212.025 24.520,210.900 24.210,210.167 23.990 C 208.872 23.602,194.151 23.220,192.333 23.528 M204.667 42.131 C 215.378 44.427,220.918 53.020,218.476 63.550 C 217.400 68.190,216.087 70.262,210.901 75.500 C 206.190 80.259,205.346 81.962,205.337 86.723 C 205.331 90.200,205.658 90.000,199.976 90.000 C 193.903 90.000,194.143 90.222,194.447 84.891 C 194.833 78.150,196.703 74.450,202.899 68.167 C 207.259 63.746,207.726 62.879,207.767 59.127 C 207.818 54.473,205.918 52.924,200.167 52.930 C 194.164 52.936,192.377 54.339,192.086 59.272 C 191.859 63.139,191.559 63.484,188.667 63.199 C 179.956 62.340,180.435 62.647,181.008 58.287 C 182.595 46.210,192.415 39.505,204.667 42.131 M203.212 98.083 C 207.939 101.242,207.465 107.657,202.333 109.975 C 199.727 111.152,197.601 110.759,195.210 108.660 C 189.168 103.355,196.533 93.620,203.212 98.083 " stroke="none" fill="#000000" fill-rule="evenodd"></path></g></svg>