<svg id="svg" version="1.1" xmlns="http://www.w3.org/2000/svg" xmlns:xlink="http://www.w3.org/1999/xlink" width="400" height="152.66666666666669" viewBox="0, 0, 400,152.66666666666669"><g id="svgg"><path id="path0" d="M263.100 44.987 C 260.887 46.336,261.000 44.635,261.000 76.523 L 261.000 105.412 262.294 106.706 L 263.588 108.000 292.477 108.000 C 324.877 108.000,322.840 108.157,324.019 105.561 C 324.625 104.227,324.652 102.953,324.659 76.167 C 324.666 44.938,324.797 46.713,322.367 45.090 L 321.235 44.333 292.701 44.335 C 264.988 44.336,264.136 44.355,263.100 44.987 M108.198 53.347 C 105.870 54.043,104.021 57.105,104.516 59.445 C 105.612 64.634,112.387 65.543,114.679 60.808 C 116.707 56.618,112.697 52.001,108.198 53.347 M276.895 53.354 C 279.259 54.245,280.966 57.136,280.490 59.445 C 279.240 65.512,270.758 65.491,269.504 59.418 C 268.706 55.551,273.119 51.930,276.895 53.354 M72.667 76.167 L 72.667 98.667 86.667 98.667 L 100.667 98.667 100.667 94.167 L 100.667 89.667 91.500 89.667 L 82.333 89.667 82.333 71.667 L 82.333 53.667 77.500 53.667 L 72.667 53.667 72.667 76.167 M154.333 76.157 L 154.333 98.667 159.000 98.667 L 163.667 98.667 163.668 91.083 L 163.668 83.500 168.720 91.083 L 173.771 98.667 179.590 98.667 L 185.410 98.667 184.859 97.825 C 184.556 97.363,181.913 93.763,178.987 89.826 C 176.061 85.889,173.667 82.535,173.667 82.372 C 173.667 82.126,182.028 72.394,184.942 69.250 L 185.791 68.333 179.979 68.357 L 174.167 68.381 169.000 74.418 L 163.833 80.455 163.667 67.144 L 163.500 53.833 158.917 53.741 L 154.333 53.648 154.333 76.157 M242.000 62.565 L 242.000 71.464 240.917 70.432 C 231.787 61.735,216.988 71.167,218.158 84.938 C 219.225 97.506,232.544 104.044,240.989 96.145 L 242.667 94.575 242.667 96.621 L 242.667 98.667 247.000 98.667 L 251.333 98.667 251.333 76.167 L 251.333 53.667 246.667 53.667 L 242.000 53.667 242.000 62.565 M196.667 67.833 C 187.641 69.881,182.442 78.018,184.378 87.067 C 186.891 98.810,201.997 103.397,211.887 95.420 C 213.999 93.717,213.968 93.608,210.662 91.181 C 207.254 88.680,207.377 88.717,206.308 89.877 C 202.385 94.137,193.333 91.905,193.333 86.677 C 193.333 86.448,196.994 86.333,204.333 86.333 L 215.333 86.333 215.331 84.250 C 215.316 72.187,207.558 65.363,196.667 67.833 M307.418 67.795 C 314.024 69.350,315.167 72.329,315.167 88.000 L 315.167 98.833 310.500 98.833 L 305.833 98.833 305.667 89.167 C 305.455 76.868,305.120 75.998,300.600 76.001 C 295.975 76.005,295.542 77.088,295.333 89.167 L 295.167 98.833 290.413 98.926 L 285.660 99.018 285.747 83.593 L 285.833 68.167 290.333 68.167 L 294.833 68.167 294.933 70.066 L 295.032 71.966 296.241 70.628 C 298.862 67.728,302.843 66.718,307.418 67.795 M134.665 67.960 C 132.979 68.509,131.766 69.317,130.393 70.808 C 128.630 72.720,128.667 72.730,128.667 70.333 L 128.667 68.333 124.333 68.333 L 120.000 68.333 120.000 83.500 L 120.000 98.667 124.648 98.667 L 129.296 98.667 129.398 89.083 C 129.526 77.089,130.006 75.872,134.624 75.845 C 139.404 75.816,139.804 76.812,139.940 89.083 L 140.046 98.667 144.690 98.667 L 149.333 98.667 149.322 88.917 C 149.304 74.145,148.490 71.153,143.833 68.736 C 142.058 67.814,136.545 67.348,134.665 67.960 M279.667 83.500 L 279.667 99.000 275.000 99.000 L 270.333 99.000 270.333 83.500 L 270.333 68.000 275.000 68.000 L 279.667 68.000 279.667 83.500 M105.333 83.500 L 105.333 98.667 109.833 98.667 L 114.333 98.667 114.333 83.500 L 114.333 68.333 109.833 68.333 L 105.333 68.333 105.333 83.500 M202.249 74.513 C 203.901 75.203,204.645 75.914,205.373 77.500 C 206.567 80.100,206.796 80.000,199.625 80.000 L 193.250 80.000 193.466 78.918 C 194.170 75.401,198.808 73.075,202.249 74.513 M238.261 76.184 C 241.287 77.446,242.885 80.412,242.581 84.199 C 241.775 94.247,227.535 93.427,227.535 83.333 C 227.535 77.416,232.801 73.906,238.261 76.184 " stroke="none" fill="#000000" fill-rule="evenodd"></path></g></svg>