<?xml version="1.0" encoding="UTF-8"?>
<!DOCTYPE svg PUBLIC "-//W3C//DTD SVG 1.1//EN" "http://www.w3.org/Graphics/SVG/1.1/DTD/svg11.dtd">
<svg xmlns="http://www.w3.org/2000/svg" version="1.1" width="1200px" height="458px" style="shape-rendering:geometricPrecision; text-rendering:geometricPrecision; image-rendering:optimizeQuality; fill-rule:evenodd; clip-rule:evenodd" xmlns:xlink="http://www.w3.org/1999/xlink">
<g><path style="opacity:0.823" fill="#1c1c1a" d="M 487.5,111.5 C 561.836,111.167 636.17,111.5 710.5,112.5C 722.253,115.807 732.42,121.807 741,130.5C 744.913,136.61 748.247,142.944 751,149.5C 751.667,201.833 751.667,254.167 751,306.5C 747.225,317.199 741.058,326.365 732.5,334C 728.967,335.28 725.801,337.114 723,339.5C 718.604,340.145 714.437,341.478 710.5,343.5C 636.167,344.833 561.833,344.833 487.5,343.5C 475.747,340.193 465.58,334.193 457,325.5C 453.087,319.39 449.753,313.056 447,306.5C 446.333,254.167 446.333,201.833 447,149.5C 450.775,138.801 456.942,129.635 465.5,122C 472.534,117.614 479.867,114.114 487.5,111.5 Z M 490.5,131.5 C 562.834,131.333 635.167,131.5 707.5,132C 710.006,133.299 712.673,134.299 715.5,135C 723.02,139.704 728.52,146.204 732,154.5C 732.667,203.5 732.667,252.5 732,301.5C 728.52,309.796 723.02,316.296 715.5,321C 712.673,321.701 710.006,322.701 707.5,324C 635.167,324.667 562.833,324.667 490.5,324C 487.994,322.701 485.327,321.701 482.5,321C 474.98,316.296 469.48,309.796 466,301.5C 465.333,252.5 465.333,203.5 466,154.5C 468.558,149.202 471.725,144.369 475.5,140C 480.041,136.121 485.041,133.287 490.5,131.5 Z"/></g>
<g><path style="opacity:0.821" fill="#1b1b19" d="M 487.5,148.5 C 489.527,148.338 491.527,148.505 493.5,149C 496.491,151.274 499.491,153.607 502.5,156C 534.408,187.577 566.575,218.744 599,249.5C 631.425,218.744 663.592,187.577 695.5,156C 698.509,153.607 701.509,151.274 704.5,149C 711.853,148.359 716.52,151.692 718.5,159C 717.214,161.022 716.214,163.189 715.5,165.5C 693.568,187.098 671.568,208.765 649.5,230.5C 668.489,248.988 687.655,267.321 707,285.5C 707.483,286.448 707.649,287.448 707.5,288.5C 716.48,291.569 718.98,297.569 715,306.5C 712.437,307.741 709.937,309.074 707.5,310.5C 705.205,309.568 702.871,308.735 700.5,308C 678.432,287.519 656.765,266.853 635.5,246C 634.5,245.333 633.5,245.333 632.5,246C 623.554,254.946 614.554,263.946 605.5,273C 601.167,273.667 596.833,273.667 592.5,273C 583.266,263.598 573.932,254.431 564.5,245.5C 543.071,265.481 521.737,285.648 500.5,306C 493.38,312.189 487.214,311.356 482,303.5C 481.333,300.833 481.333,298.167 482,295.5C 504.19,273.642 526.69,252.142 549.5,231C 527.018,209.136 504.684,187.303 482.5,165.5C 481.786,163.189 480.786,161.022 479.5,159C 480.717,157.352 481.55,155.519 482,153.5C 483.812,151.7 485.645,150.033 487.5,148.5 Z"/></g>
</svg>
