<?xml version="1.0" standalone="no"?>
<!DOCTYPE svg PUBLIC "-//W3C//DTD SVG 20010904//EN"
 "http://www.w3.org/TR/2001/REC-SVG-20010904/DTD/svg10.dtd">
<svg version="1.0" xmlns="http://www.w3.org/2000/svg"
 width="512.000000pt" height="512.000000pt" viewBox="0 0 512.000000 512.000000"
 preserveAspectRatio="xMidYMid meet">

<g transform="translate(0.000000,512.000000) scale(0.100000,-0.100000)"
fill="#000000" stroke="none">
<path d="M2440 4559 c-264 -14 -506 -77 -755 -199 -604 -294 -1014 -860 -1110
-1532 -19 -132 -19 -404 0 -536 83 -585 401 -1087 895 -1412 236 -155 522
-262 813 -305 142 -20 408 -20 556 0 432 61 826 258 1137 569 311 312 504 695
570 1131 22 147 22 423 0 570 -98 648 -495 1203 -1071 1497 -331 169 -652 236
-1035 217z m270 -163 c470 -25 960 -282 1280 -671 398 -486 519 -1148 319
-1749 -236 -709 -891 -1213 -1629 -1255 -526 -29 -1002 143 -1382 498 -489
458 -690 1154 -521 1806 177 682 737 1208 1431 1345 107 21 311 39 377 33 17
-1 73 -4 125 -7z"/>
<path d="M2808 2653 l-628 -628 -248 248 c-266 265 -271 269 -326 226 -20 -15
-26 -29 -26 -57 0 -35 15 -52 300 -337 l300 -300 682 682 c655 655 682 683
682 719 0 44 -31 74 -78 74 -28 0 -95 -64 -658 -627z"/>
</g>
</svg>
