<svg version="1.2" xmlns="http://www.w3.org/2000/svg" viewBox="0 0 400 400" width="400" height="400">
	<title>down-svg</title>
	<style>
		.s0 { fill: #000000 } 
	</style>
	<g id="svgg">
		<path id="path0" fill-rule="evenodd" class="s0" d="m356.8 205.8c-4.9 136.4-171.3 201.7-267.7 105.1-92.3-92.4-37.9-249.8 92.1-266.8 94.7-12.4 179.1 65.3 175.6 161.7zm-289.6 48.4c46.5 113 204.5 119.9 260.4 11.4 46.3-89.5-12.2-197.5-112.9-208.5-106.7-11.7-188.4 97.6-147.5 197.1zm137.1-132l1.9 1.9v68c0 74.8-0.2 70.8 4.4 65.6 0.8-0.8 1.8-1.4 2.3-1.4 0.6 0 1.2-0.6 1.4-1.2 0.3-0.7 1-1.2 1.6-1.2 0.6 0 1.3-0.3 1.4-0.6 0.2-0.4 1.6-1.4 3.2-2.4 1.6-1 2.9-2.1 2.9-2.5 0-0.4 0.6-0.7 1.2-0.7 0.7 0 1.2-0.4 1.2-0.8 0-0.5 0.3-0.8 0.8-0.8 0.4 0 1.3-0.4 2-1 3.4-2.9 5.7-4.3 7.5-5 0.8-0.2 1.4-0.9 1.4-1.5 0-0.6 0.5-1.1 1.1-1.1 0.6 0 2.2-1.1 3.5-2.3 1.3-1.3 2.9-2.4 3.5-2.4 0.7 0 1.3-0.3 1.3-0.7 0-0.4 0.7-1 1.5-1.2 0.9-0.3 1.4-0.9 1.2-1.3-0.3-0.4 0-0.7 0.6-0.7 0.5 0 2.7-1.2 4.8-2.7 3.9-2.8 8.8-3.7 11.3-2.1 2.9 1.9 1.2 11.1-2.1 11.1-0.4 0-0.9 0.2-1 0.5-0.4 0.9-5.2 4.1-6.1 4.1-0.5 0-0.9 0.5-0.9 1 0 0.6-1.9 2.2-4.3 3.6-2.3 1.4-4.2 2.9-4.2 3.2 0 0.4-0.8 0.9-1.8 1.1-1 0.3-2.9 1.5-4.3 2.8-1.3 1.3-2.8 2.4-3.2 2.4-0.3 0-1.3 0.7-2.1 1.6-0.8 0.8-1.9 1.5-2.5 1.5-0.6 0-0.8 0.4-0.5 0.9 0.3 0.6 0.2 0.7-0.3 0.4-0.5-0.3-1.6 0.2-2.5 1-0.9 0.9-1.8 1.6-2 1.6-0.5 0-1.9 1.1-4.3 3.4-0.9 0.7-1.8 1.3-2.2 1.3-0.3 0-1.8 1.1-3.3 2.4-1.4 1.3-3 2.3-3.4 2.3-0.5 0-2 1.1-3.5 2.4-1.4 1.2-2.8 2.3-3.2 2.3-0.4 0-1.8 1.1-3.2 2.4-3.1 3.1-7.8 3-10.9 0-1.1-1.1-2.9-2.5-4-3.2-1.1-0.6-2.9-1.8-3.9-2.5-8.1-6.1-17.9-13.1-18.2-13.1-0.3 0-1.1-0.7-2-1.6-0.9-0.9-2-1.3-2.5-1-0.5 0.3-0.6 0.1-0.3-0.4 0.2-0.4-0.1-1-0.9-1.2-0.8-0.3-2.3-1.4-3.5-2.5-1.2-1.1-2.2-1.8-2.2-1.5 0 0.2-0.4 0.1-0.9-0.4-0.6-0.4-2.3-1.8-3.8-3.1-1.5-1.3-3.1-2.3-3.5-2.4-0.4 0-2-1.1-3.5-2.4-1.5-1.4-2.8-2.4-3-2.3-0.1 0.1-2.5-1.7-5.3-3.9l-5.2-4 0.5-4c0.6-4.8 0.2-4.4 5-4.6 2.9-0.1 4.5 0.3 5.5 1.2 0.8 0.7 1.9 1.3 2.4 1.3 0.5 0 0.9 0.3 0.9 0.6 0 0.3 1.1 1.3 2.5 2.1 1.4 0.8 4.7 3.2 7.4 5.2 2.6 2.1 5.1 3.8 5.6 3.8 0.5 0 0.9 0.3 0.9 0.6 0 0.9 6.4 5.3 8.5 6 0.9 0.3 1.5 0.8 1.3 1.2-0.3 0.4 0.3 0.9 1.3 1.2 1 0.3 2.3 1.1 3 1.7 2.6 2.4 4.9 4.1 5.6 4.1 0.4 0 1.5 0.9 2.3 2 0.9 1.1 2 2 2.6 2 0.6 0 2.2 1 3.6 2.3 1.4 1.3 2.7 2.2 2.8 2.1 0.1-0.2 0.2-31.1 0.3-68.8 0-63.8 0.1-68.6 1.3-69.9 2.2-2.2 6.9-2.1 9.2 0.2z"/>
	</g>
</svg>