<svg id="svg" version="1.1" xmlns="http://www.w3.org/2000/svg" xmlns:xlink="http://www.w3.org/1999/xlink" width="400" height="400" viewBox="0, 0, 400,400"><g id="svgg"><path id="path0" d="M181.250 44.099 C 51.213 61.084,-3.150 218.512,89.107 310.933 C 185.532 407.529,351.920 342.197,356.803 205.822 C 360.256 109.407,275.937 31.731,181.250 44.099 M214.679 57.078 C 315.362 68.061,373.859 176.051,327.648 265.625 C 271.667 374.136,113.710 367.232,67.228 254.243 C 26.274 154.688,107.977 45.438,214.679 57.078 M143.750 128.034 C 143.750 128.413,148.905 135.884,155.205 144.635 C 161.506 153.387,168.304 162.832,170.311 165.625 C 172.319 168.418,178.700 177.215,184.492 185.174 L 195.023 199.645 191.104 205.096 C 188.949 208.094,182.578 216.875,176.947 224.609 C 150.604 260.792,141.406 273.539,141.406 273.865 C 141.406 274.060,143.492 274.219,146.041 274.219 L 150.676 274.219 161.010 259.961 C 166.694 252.119,172.638 243.945,174.220 241.797 C 175.801 239.648,182.527 230.320,189.167 221.067 L 201.240 204.244 208.628 214.768 C 215.999 225.268,228.777 243.314,242.981 263.281 L 250.483 273.828 255.319 274.061 C 261.203 274.344,261.237 275.009,254.921 266.247 C 252.042 262.253,247.709 256.172,245.293 252.734 C 242.877 249.297,233.280 235.860,223.966 222.874 C 214.652 209.889,207.031 199.086,207.031 198.867 C 207.031 198.649,211.893 191.871,217.835 183.805 C 223.778 175.740,232.865 163.340,238.030 156.250 C 243.195 149.160,249.926 140.020,252.988 135.938 C 259.689 127.004,259.640 127.344,254.238 127.344 C 249.067 127.344,250.335 126.089,237.275 144.141 C 231.990 151.445,222.089 165.135,215.273 174.562 C 208.456 183.989,202.458 192.513,201.944 193.504 C 201.052 195.224,200.724 194.900,194.862 186.521 C 178.687 163.396,153.615 128.454,152.831 127.942 C 151.582 127.125,143.750 127.205,143.750 128.034 " stroke="none" fill="#000000" fill-rule="evenodd"></path></g></svg>